<svg width="32" height="32" viewBox="0 0 32 32" fill="none" xmlns="http://www.w3.org/2000/svg">
<g id="IMAGE">
<path id="Vector" d="M22.8353 22.3639L22.3638 22.8353C22.1035 23.0956 21.6814 23.0956 21.421 22.8353L15.9999 17.4141L10.5787 22.8352C10.3184 23.0956 9.89626 23.0956 9.63591 22.8352L9.1645 22.3638C8.90415 22.1035 8.90415 21.6814 9.1645 21.421L14.5857 15.9999L9.1645 10.5787C8.90415 10.3184 8.90415 9.89626 9.1645 9.63591L9.6359 9.16451C9.89625 8.90416 10.3184 8.90416 10.5787 9.16451L15.9999 14.5857L21.421 9.1645C21.6814 8.90415 22.1035 8.90415 22.3638 9.1645L22.8353 9.6359C23.0956 9.89625 23.0956 10.3184 22.8353 10.5787L17.4141 15.9999L22.8353 21.421C23.0956 21.6814 23.0956 22.1035 22.8353 22.3639Z" fill="white"/>
</g>
</svg>
